<?xml version="1.0" standalone="no"?>
<!DOCTYPE svg PUBLIC "-//W3C//DTD SVG 20010904//EN"
 "http://www.w3.org/TR/2001/REC-SVG-20010904/DTD/svg10.dtd">
<svg version="1.0" xmlns="http://www.w3.org/2000/svg"
 width="1280.000000pt" height="1280.000000pt" viewBox="0 0 1280.000000 1280.000000"
 preserveAspectRatio="xMidYMid meet">
<metadata>
Created by potrace 1.14, written by Peter Selinger 2001-2017
</metadata>
<g transform="translate(0.000000,1280.000000) scale(0.100000,-0.100000)"
fill="#000000" stroke="none">
<path d="M2783 12748 c-1 -68 -5 -111 -12 -123 -3 -5 -6 -19 -7 -30 0 -11 -4
-34 -9 -50 -5 -17 -9 -32 -10 -35 -18 -76 -123 -313 -156 -354 -45 -55 -96
-122 -104 -135 -16 -25 -180 -181 -191 -181 -3 0 -14 -9 -26 -20 -12 -11 -34
-26 -50 -32 -15 -7 -28 -15 -28 -18 0 -3 -30 -21 -68 -40 -37 -19 -68 -38 -70
-42 -2 -5 -14 -8 -26 -8 -13 0 -26 -3 -29 -7 -15 -15 -164 -60 -257 -78 -19
-4 -74 -9 -122 -12 -56 -3 -88 -9 -89 -16 -1 -7 -2 -48 -3 -91 -1 -52 -6 -81
-14 -84 -9 -3 -12 -849 -12 -3793 0 -2116 4 -3789 9 -3789 4 0 11 -26 15 -57
4 -32 14 -86 22 -121 9 -35 17 -68 18 -75 2 -7 5 -19 8 -27 3 -8 18 -53 33
-100 15 -47 43 -115 61 -152 18 -36 30 -69 27 -72 -4 -3 0 -6 7 -6 7 0 10 -3
7 -6 -4 -4 2 -19 13 -34 11 -16 20 -31 20 -35 0 -4 14 -27 30 -52 17 -25 32
-50 33 -56 2 -11 6 -17 34 -51 6 -7 9 -17 6 -20 -4 -3 -1 -6 5 -6 7 0 12 -5
12 -11 0 -6 10 -24 23 -39 12 -15 29 -37 37 -50 16 -24 53 -69 87 -106 12 -13
20 -24 18 -24 -7 0 75 -88 191 -206 61 -62 109 -116 106 -119 -3 -3 1 -5 10
-5 8 0 23 -10 35 -22 11 -13 39 -39 63 -58 23 -19 56 -47 72 -63 17 -15 43
-35 59 -44 16 -10 29 -20 29 -24 0 -4 33 -31 73 -60 39 -29 78 -58 85 -66 7
-7 26 -20 42 -30 17 -9 30 -21 30 -25 0 -4 6 -8 14 -8 7 0 19 -7 26 -15 7 -9
28 -23 46 -31 19 -9 34 -20 34 -25 0 -5 7 -9 15 -9 8 0 15 -4 15 -9 0 -5 15
-16 34 -25 18 -8 39 -22 46 -31 7 -8 19 -15 26 -15 8 0 14 -4 14 -10 0 -5 7
-10 15 -10 8 0 15 -4 15 -10 0 -5 7 -10 15 -10 8 0 15 -4 15 -10 0 -5 5 -10
11 -10 5 0 37 -18 69 -40 32 -22 64 -40 69 -40 6 0 11 -4 11 -10 0 -5 4 -10 9
-10 5 0 46 -22 91 -50 45 -27 86 -50 91 -50 5 0 9 -3 9 -8 0 -4 17 -15 38 -25
35 -16 89 -46 157 -88 17 -11 42 -24 58 -30 15 -6 27 -15 27 -20 0 -5 3 -8 8
-7 7 2 102 -42 112 -52 12 -12 51 -30 65 -30 8 0 15 -3 15 -7 0 -5 10 -13 23
-19 83 -40 233 -120 235 -126 2 -5 11 -8 20 -9 10 0 31 -9 47 -20 17 -10 39
-23 50 -28 71 -31 121 -56 125 -61 3 -3 20 -12 38 -19 17 -8 32 -17 32 -22 0
-5 4 -8 8 -7 8 3 232 -101 242 -112 3 -3 37 -20 75 -38 39 -19 77 -38 85 -43
8 -5 26 -14 40 -19 38 -16 394 -194 400 -200 3 -3 46 -26 95 -50 50 -24 92
-47 95 -50 3 -3 30 -18 60 -33 30 -15 87 -46 125 -68 39 -22 78 -43 88 -46 9
-3 17 -9 17 -14 0 -5 8 -9 18 -9 10 0 24 -9 32 -20 8 -11 22 -20 32 -20 10 0
18 -3 18 -8 0 -4 17 -15 39 -24 21 -9 45 -23 53 -30 18 -16 46 -35 78 -50 14
-7 32 -19 40 -28 8 -8 27 -21 43 -29 15 -8 27 -18 27 -23 0 -4 6 -8 14 -8 7 0
27 -14 44 -30 30 -29 72 -41 72 -21 0 5 8 12 19 16 10 3 29 14 41 25 12 11 27
17 33 13 6 -3 7 -1 3 5 -6 11 6 16 27 13 4 0 7 3 7 9 0 5 7 10 15 10 8 0 15 5
15 10 0 6 9 10 21 10 11 0 18 4 15 8 -3 5 11 14 30 21 18 7 34 17 34 22 0 5 9
9 20 9 11 0 20 4 20 8 0 9 37 29 54 30 5 0 12 4 15 9 3 4 16 14 29 21 12 6 32
18 45 25 12 6 24 14 27 17 3 3 37 21 75 40 39 19 72 38 73 43 2 4 10 7 17 7 7
0 15 5 17 10 2 6 13 12 25 13 12 0 19 5 17 9 -3 4 3 8 13 8 10 0 29 9 43 20
14 11 33 20 43 20 10 0 16 4 13 8 -3 5 12 14 32 22 20 7 39 16 42 19 3 4 46
27 95 51 50 25 92 48 93 52 2 5 9 8 16 8 18 0 66 24 66 33 0 4 5 7 12 7 11 0
161 74 241 119 21 11 44 21 51 21 8 0 16 3 18 8 2 4 80 45 173 92 94 47 172
88 173 92 2 5 11 8 20 8 10 0 28 9 42 20 14 11 33 20 43 20 9 0 17 5 17 10 0
6 9 10 20 10 11 0 20 5 20 10 0 6 7 10 16 10 9 0 28 8 42 18 15 10 68 38 117
62 50 25 92 48 93 52 2 5 12 8 22 8 10 0 20 3 22 8 2 4 26 18 53 31 28 14 62
33 77 43 14 10 33 18 42 18 9 0 16 5 16 10 0 6 9 10 20 10 11 0 20 3 20 8 0 4
10 12 23 17 39 19 152 79 157 85 3 3 19 12 35 20 17 8 32 17 35 20 3 3 19 12
35 20 17 8 32 17 35 20 3 3 15 11 28 18 12 6 32 18 45 25 12 6 24 14 27 17 3
3 19 12 35 20 39 19 159 91 165 99 3 3 16 12 29 19 13 8 39 22 58 33 59 33
308 201 311 210 2 5 10 9 18 9 8 0 14 3 14 8 0 4 25 23 55 42 30 19 55 38 55
41 0 4 13 12 30 19 16 7 27 16 24 21 -3 5 0 9 6 9 6 0 25 13 43 30 18 16 35
30 39 30 7 0 42 28 95 78 13 12 27 22 31 22 4 0 13 9 20 20 7 11 19 20 28 20
8 0 13 4 9 9 -3 6 5 15 17 22 13 7 65 54 116 106 51 51 97 93 103 93 5 0 9 4
9 8 0 4 15 25 33 45 17 20 48 55 67 78 19 23 45 52 58 65 13 13 20 24 16 24
-4 0 3 9 16 20 13 11 20 20 16 20 -4 0 2 10 13 22 12 12 33 40 48 62 15 23 32
44 38 48 7 5 7 8 0 8 -6 0 -6 3 1 8 14 10 59 85 56 95 -1 4 5 7 15 7 9 0 14 3
11 6 -6 5 53 126 74 151 6 7 8 13 4 13 -3 0 3 17 13 37 30 60 48 103 71 173
12 36 25 72 28 80 6 18 5 13 21 80 7 30 15 62 18 70 4 8 7 22 8 30 5 54 18
110 26 110 5 0 9 1455 9 3844 l0 3844 -37 6 c-21 3 -69 8 -106 11 -38 3 -74 8
-79 11 -6 4 -25 9 -42 10 -17 2 -38 7 -46 11 -8 3 -21 7 -28 9 -8 1 -21 6 -30
10 -9 4 -25 9 -34 10 -18 4 -71 27 -158 67 -51 24 -133 77 -138 89 -2 4 -9 8
-15 8 -7 0 -26 14 -44 30 -18 17 -35 30 -39 30 -22 0 -205 205 -259 291 -17
28 -105 199 -106 206 0 5 -7 23 -15 41 -15 36 -33 101 -41 142 -2 14 -8 41
-13 60 -5 19 -12 78 -16 130 -3 52 -8 98 -11 103 -2 4 -49 7 -104 7 -59 0 -99
4 -99 10 0 7 -1184 10 -3533 10 l-3532 0 -2 -52z"/>
</g>
</svg>
